<svg width="24" height="28" viewBox="0 0 24 28" fill="none" xmlns="http://www.w3.org/2000/svg">
<g clip-path="url(#clip0_72_118)">
<path d="M0.65625 5.36719C0.708333 4.79427 1.02083 4.48177 1.59375 4.42969H3.39062C4.27604 4.48177 4.92708 4.89844 5.34375 5.67969H21.3984C21.9193 5.70573 22.3359 5.91406 22.6484 6.30469C22.9349 6.69531 23.026 7.13802 22.9219 7.63281L21.3203 13.6094C21.138 14.2344 20.7995 14.7292 20.3047 15.0938C19.8099 15.4844 19.237 15.6797 18.5859 15.6797H7.33594L7.53125 16.8125C7.66146 17.2812 7.97396 17.5286 8.46875 17.5547H19.7188C20.2917 17.6068 20.6042 17.9193 20.6562 18.4922C20.6042 19.0651 20.2917 19.3776 19.7188 19.4297H8.46875C7.76562 19.4297 7.16667 19.2083 6.67188 18.7656C6.15104 18.349 5.82552 17.8151 5.69531 17.1641L3.66406 6.57812C3.63802 6.39583 3.54688 6.30469 3.39062 6.30469H1.59375C1.02083 6.2526 0.708333 5.9401 0.65625 5.36719ZM5.65625 22.5547C5.68229 21.8516 5.99479 21.3047 6.59375 20.9141C7.21875 20.6016 7.84375 20.6016 8.46875 20.9141C9.06771 21.3047 9.38021 21.8516 9.40625 22.5547C9.38021 23.2578 9.06771 23.8047 8.46875 24.1953C7.84375 24.5078 7.21875 24.5078 6.59375 24.1953C5.99479 23.8047 5.68229 23.2578 5.65625 22.5547ZM18.7812 20.6797C19.4844 20.7057 20.0312 21.0182 20.4219 21.6172C20.7344 22.2422 20.7344 22.8672 20.4219 23.4922C20.0312 24.0911 19.4844 24.4036 18.7812 24.4297C18.0781 24.4036 17.5312 24.0911 17.1406 23.4922C16.8281 22.8672 16.8281 22.2422 17.1406 21.6172C17.5312 21.0182 18.0781 20.7057 18.7812 20.6797Z" fill="black"/>
</g>
<defs>
<clipPath id="clip0_72_118">
<rect width="22.5" height="20" fill="white" transform="translate(0.65625 4)"/>
</clipPath>
</defs>
</svg>
