<svg width="17" height="16" viewBox="0 0 17 16" fill="none" xmlns="http://www.w3.org/2000/svg">
<path d="M16.3028 8C16.3028 8.29837 16.2014 8.58452 16.0207 8.79549C15.84 9.00647 15.595 9.125 15.3395 9.125H1.21105C0.955563 9.125 0.710543 9.00647 0.529888 8.79549C0.349233 8.58452 0.247742 8.29837 0.247742 8C0.247742 7.70163 0.349233 7.41548 0.529888 7.2045C0.710543 6.99353 0.955563 6.875 1.21105 6.875H15.3395C15.595 6.875 15.84 6.99353 16.0207 7.2045C16.2014 7.41548 16.3028 7.70163 16.3028 8ZM1.21105 3.125H15.3395C15.595 3.125 15.84 3.00647 16.0207 2.7955C16.2014 2.58452 16.3028 2.29837 16.3028 2C16.3028 1.70163 16.2014 1.41548 16.0207 1.2045C15.84 0.993526 15.595 0.875 15.3395 0.875H1.21105C0.955563 0.875 0.710543 0.993526 0.529888 1.2045C0.349233 1.41548 0.247742 1.70163 0.247742 2C0.247742 2.29837 0.349233 2.58452 0.529888 2.7955C0.710543 3.00647 0.955563 3.125 1.21105 3.125ZM15.3395 12.875H1.21105C0.955563 12.875 0.710543 12.9935 0.529888 13.2045C0.349233 13.4155 0.247742 13.7016 0.247742 14C0.247742 14.2984 0.349233 14.5845 0.529888 14.7955C0.710543 15.0065 0.955563 15.125 1.21105 15.125H15.3395C15.595 15.125 15.84 15.0065 16.0207 14.7955C16.2014 14.5845 16.3028 14.2984 16.3028 14C16.3028 13.7016 16.2014 13.4155 16.0207 13.2045C15.84 12.9935 15.595 12.875 15.3395 12.875Z" fill="black"/>
</svg>
