<svg width="21" height="22" viewBox="0 0 21 22" fill="none" xmlns="http://www.w3.org/2000/svg">
<path d="M20.3846 19.2039L15.9324 14.7499C17.2673 13.0103 17.8906 10.8281 17.6757 8.64594C17.4608 6.46377 16.424 4.44503 14.7754 2.99924C13.1269 1.55344 10.9901 0.788858 8.79852 0.860583C6.60697 0.932307 4.52476 1.83497 2.97427 3.38546C1.42378 4.93595 0.521113 7.01817 0.449389 9.20972C0.377665 11.4013 1.14225 13.538 2.58804 15.1866C4.03384 16.8352 6.05258 17.872 8.23475 18.0869C10.4169 18.3018 12.5991 17.6785 14.3387 16.3436L18.7946 20.8005C18.8993 20.9051 19.0235 20.9882 19.1602 21.0448C19.297 21.1014 19.4435 21.1306 19.5915 21.1306C19.7395 21.1306 19.886 21.1014 20.0228 21.0448C20.1595 20.9882 20.2837 20.9051 20.3884 20.8005C20.493 20.6958 20.576 20.5716 20.6327 20.4349C20.6893 20.2982 20.7184 20.1516 20.7184 20.0036C20.7184 19.8556 20.6893 19.7091 20.6327 19.5724C20.576 19.4356 20.493 19.3114 20.3884 19.2067L20.3846 19.2039ZM2.71368 9.49987C2.71368 8.23902 3.08757 7.00647 3.78806 5.95811C4.48855 4.90975 5.48419 4.09265 6.64907 3.61014C7.81395 3.12763 9.09575 3.00138 10.3324 3.24737C11.569 3.49335 12.7049 4.10051 13.5965 4.99207C14.488 5.88363 15.0952 7.01954 15.3412 8.25617C15.5872 9.4928 15.4609 10.7746 14.9784 11.9395C14.4959 13.1044 13.6788 14.1 12.6304 14.8005C11.5821 15.501 10.3495 15.8749 9.08868 15.8749C7.39846 15.8731 5.77796 15.2009 4.58279 14.0058C3.38762 12.8106 2.71542 11.1901 2.71368 9.49987Z" fill="black"/>
</svg>
