<svg width="16" height="16" viewBox="0 0 16 16" fill="none" xmlns="http://www.w3.org/2000/svg">
<path d="M13 6.84375C12.9792 8.30208 12.5625 9.58333 11.75 10.6875L15.7188 14.625C15.9062 14.8333 16 15.0729 16 15.3438C16 15.6146 15.9062 15.8542 15.7188 16.0625C15.5104 16.25 15.2708 16.3438 15 16.3438C14.7292 16.3438 14.4896 16.25 14.2812 16.0625L10.3438 12.0938C9.23958 12.9062 7.95833 13.3229 6.5 13.3438C4.66667 13.3021 3.13542 12.6667 1.90625 11.4375C0.677083 10.2083 0.0416667 8.67708 0 6.84375C0.0416667 5.01042 0.677083 3.47917 1.90625 2.25C3.13542 1.02083 4.66667 0.385417 6.5 0.34375C8.33333 0.385417 9.86458 1.02083 11.0938 2.25C12.3229 3.47917 12.9583 5.01042 13 6.84375ZM6.5 11.3438C7.3125 11.3438 8.0625 11.1458 8.75 10.75C9.4375 10.3542 9.98958 9.80208 10.4062 9.09375C10.8021 8.38542 11 7.63542 11 6.84375C11 6.05208 10.8021 5.30208 10.4062 4.59375C9.98958 3.88542 9.4375 3.33333 8.75 2.9375C8.0625 2.54167 7.3125 2.34375 6.5 2.34375C5.6875 2.34375 4.9375 2.54167 4.25 2.9375C3.5625 3.33333 3.01042 3.88542 2.59375 4.59375C2.19792 5.30208 2 6.05208 2 6.84375C2 7.63542 2.19792 8.38542 2.59375 9.09375C3.01042 9.80208 3.5625 10.3542 4.25 10.75C4.9375 11.1458 5.6875 11.3438 6.5 11.3438Z" fill="#9CA3AF"/>
</svg>
